<?xml version="1.0" encoding="utf-8"?>
<!-- Generator: Adobe Illustrator 16.0.0, SVG Export Plug-In . SVG Version: 6.00 Build 0)  -->
<!DOCTYPE svg PUBLIC "-//W3C//DTD SVG 1.1//EN" "http://www.w3.org/Graphics/SVG/1.1/DTD/svg11.dtd">
<svg version="1.1" id="Layer_1" xmlns="http://www.w3.org/2000/svg" xmlns:xlink="http://www.w3.org/1999/xlink" x="0px" y="0px"
	 width="861.086px" height="351.035px" viewBox="0 0 861.086 351.035" enable-background="new 0 0 861.086 351.035"
	 xml:space="preserve">
<polygon points="678.676,262.462 650.216,64.319 622.374,69.164 622.374,65.891 589.777,65.891 589.777,266.495 622.374,266.495 
	622.374,100.253 646.481,268.065 "/>
<path d="M100.933,130.205v18.547h0.672c4.032-7.728,9.254-13.35,15.677-16.873c6.417-3.517,12.988-5.28,19.705-5.28
	c8.509,0,15.487,1.331,20.938,3.991c5.449,2.665,9.742,6.356,12.877,11.078c3.134,4.725,5.336,10.478,6.606,17.26
	c1.267,6.786,1.902,14.297,1.902,22.54v81.919h-31.799v-75.221c0-10.989-1.493-19.192-4.478-24.601
	c-2.989-5.408-8.287-8.115-15.901-8.115c-8.66,0-14.929,2.962-18.811,8.889c-3.884,5.925-5.823,15.673-5.823,29.239v69.81H70.703
	V130.205H100.933z"/>
<path d="M204.166,167.944c2.834-8.671,6.865-16.057,12.093-22.155c5.223-6.094,11.494-10.819,18.811-14.167
	c7.312-3.35,15.525-5.023,24.632-5.023c9.105,0,17.356,1.673,24.747,5.023c7.39,3.348,13.696,8.074,18.922,14.167
	c5.224,6.098,9.254,13.484,12.093,22.155c2.834,8.674,4.254,18.334,4.254,28.98c0,10.65-1.42,20.266-4.254,28.853
	c-2.839,8.588-6.869,15.93-12.093,22.024c-5.227,6.099-11.533,10.78-18.922,14.04c-7.39,3.26-15.642,4.892-24.747,4.892
	c-9.106,0-17.32-1.632-24.632-4.892c-7.317-3.26-13.588-7.941-18.811-14.04c-5.229-6.094-9.259-13.436-12.093-22.024
	c-2.837-8.587-4.256-18.203-4.256-28.853C199.91,186.279,201.328,176.619,204.166,167.944z M233.054,212.508
	c0.895,5.067,2.424,9.621,4.591,13.654c2.162,4.038,5.039,7.258,8.622,9.661c3.583,2.406,8.061,3.604,13.435,3.604
	c5.376,0,9.888-1.199,13.55-3.604c3.656-2.402,6.566-5.623,8.733-9.661c2.163-4.034,3.693-8.587,4.59-13.654
	c0.897-5.062,1.343-10.259,1.343-15.584c0-5.321-0.446-10.562-1.343-15.714c-0.896-5.151-2.427-9.7-4.59-13.651
	c-2.167-3.95-5.078-7.17-8.733-9.66c-3.662-2.489-8.173-3.736-13.55-3.736c-5.374,0-9.852,1.248-13.435,3.736
	c-3.583,2.49-6.46,5.71-8.622,9.66c-2.167,3.952-3.696,8.5-4.591,13.651c-0.896,5.153-1.345,10.394-1.345,15.714
	C231.709,202.249,232.158,207.446,233.054,212.508z"/>
<path d="M368.982,263.386l-39.637-133.181h33.369l24.408,90.935h0.448l24.409-90.935h31.575l-39.188,133.181H368.982z"/>
<path d="M490.802,231.444c4.777,5.324,11.646,7.984,20.604,7.984c6.418,0,11.94-1.841,16.571-5.538
	c4.626-3.689,7.464-7.6,8.51-11.72h27.993c-4.48,15.972-11.349,27.395-20.604,34.26c-9.258,6.873-20.454,10.304-33.591,10.304
	c-9.107,0-17.32-1.673-24.633-5.023c-7.317-3.347-13.514-8.113-18.587-14.296c-5.077-6.183-8.995-13.564-11.757-22.153
	c-2.764-8.587-4.142-18.033-4.142-28.337c0-9.958,1.416-19.232,4.254-27.821c2.833-8.585,6.864-16.013,12.093-22.283
	c5.223-6.268,11.456-11.205,18.697-14.813c7.241-3.606,15.263-5.409,24.074-5.409c9.854,0,18.436,2.188,25.753,6.568
	c7.313,4.379,13.324,10.264,18.027,17.646c4.702,7.388,8.097,15.802,10.189,25.247c2.089,9.446,2.833,19.32,2.239,29.624h-83.53
	C483.412,217.531,486.023,226.122,490.802,231.444z M526.746,161.376c-3.808-4.807-9.596-7.214-17.357-7.214
	c-5.077,0-9.293,0.99-12.651,2.962c-3.359,1.977-6.046,4.424-8.062,7.342c-2.017,2.922-3.438,6.015-4.256,9.275
	c-0.821,3.264-1.309,6.182-1.456,8.758h51.731C533.2,173.225,530.551,166.185,526.746,161.376z"/>
<path d="M699.509,171.164c0.448-8.585,2.312-15.715,5.599-21.381c3.282-5.667,7.464-10.215,12.542-13.654
	c5.074-3.432,10.783-5.88,17.13-7.341c6.344-1.457,12.727-2.188,19.146-2.188c5.822,0,11.719,0.474,17.692,1.417
	c5.969,0.945,11.419,2.792,16.347,5.537c4.927,2.75,8.957,6.57,12.092,11.465c3.135,4.893,4.702,11.377,4.702,19.448v69.296
	c0,6.013,0.299,11.764,0.896,17.258c0.598,5.498,1.641,9.621,3.135,12.366h-32.245c-0.598-2.061-1.086-4.161-1.457-6.312
	c-0.373-2.145-0.637-4.333-0.783-6.568c-5.077,6.013-11.05,10.219-17.915,12.623c-6.869,2.402-13.885,3.605-21.051,3.605
	c-5.525,0-10.676-0.771-15.452-2.316c-4.778-1.547-8.956-3.949-12.54-7.213c-3.582-3.26-6.382-7.382-8.397-12.364
	c-2.016-4.979-3.023-10.906-3.023-17.775c0-7.556,1.155-13.782,3.472-18.677c2.312-4.895,5.299-8.798,8.957-11.721
	c3.656-2.917,7.839-5.106,12.54-6.567c4.704-1.457,9.44-2.616,14.221-3.479c4.776-0.857,9.478-1.547,14.109-2.06
	c4.625-0.516,8.732-1.289,12.315-2.319c3.583-1.031,6.417-2.532,8.509-4.509c2.09-1.971,3.061-4.849,2.913-8.628
	c0-3.95-0.56-7.084-1.681-9.402c-1.119-2.318-2.613-4.122-4.479-5.411c-1.869-1.287-4.03-2.144-6.495-2.574
	c-2.463-0.428-5.114-0.646-7.949-0.646c-6.271,0-11.196,1.547-14.779,4.637c-3.582,3.092-5.675,8.243-6.271,15.457H699.509z
	 M772.962,198.211c-1.344,1.378-3.024,2.449-5.039,3.22c-2.017,0.773-4.182,1.417-6.494,1.933c-2.316,0.516-4.741,0.945-7.278,1.288
	c-2.54,0.345-5.078,0.773-7.613,1.289c-2.391,0.516-4.743,1.203-7.056,2.061c-2.315,0.862-4.332,2.021-6.045,3.479
	c-1.718,1.461-3.102,3.308-4.145,5.539c-1.046,2.232-1.566,5.067-1.566,8.5c0,3.265,0.521,6.013,1.566,8.244
	c1.043,2.232,2.465,3.991,4.257,5.28c1.79,1.288,3.879,2.188,6.27,2.705c2.387,0.515,4.85,0.774,7.39,0.774
	c6.271,0,11.119-1.199,14.556-3.608c3.433-2.402,5.969-5.28,7.614-8.628c1.642-3.351,2.648-6.738,3.024-10.176
	c0.369-3.435,0.56-6.183,0.56-8.244V198.211z"/>
</svg>
