<?xml version="1.0" encoding="utf-8"?>
<!-- Generator: Adobe Illustrator 16.0.0, SVG Export Plug-In . SVG Version: 6.00 Build 0)  -->
<!DOCTYPE svg PUBLIC "-//W3C//DTD SVG 1.1//EN" "http://www.w3.org/Graphics/SVG/1.1/DTD/svg11.dtd">
<svg version="1.1" xmlns="http://www.w3.org/2000/svg" xmlns:xlink="http://www.w3.org/1999/xlink" x="0px" y="0px"
	 width="261.104px" height="299.249px" viewBox="0 0 261.104 299.249" enable-background="new 0 0 261.104 299.249"
	 xml:space="preserve">
<g id="Layer_1" display="none">
</g>
<g id="Layer_3" display="none">
	<rect x="-1.608" y="-1.751" display="inline" fill="#E08989" width="260" height="304.61"/>
</g>
<g id="Layer_4">
</g>
<g id="Layer_2">
	<g>
		<ellipse fill="#BE1E2D" cx="104.131" cy="84.125" rx="3.625" ry="7"/>
		<ellipse fill="#BE1E2D" cx="148.381" cy="84.125" rx="3.625" ry="7"/>
		<path fill="none" stroke="#BE1E2D" stroke-width="2" stroke-miterlimit="10" d="M122.141,100.879
			c5.018,1.673,8.954,0.93,9.89,0.261"/>
		<path fill="none" stroke="#BE1E2D" stroke-width="2" stroke-miterlimit="10" d="M111.727,119.099
			c5.987,3.123,8.33,3.384,11.453,3.123"/>
		<path fill="none" stroke="#BE1E2D" stroke-width="2" stroke-miterlimit="10" d="M133.331,121.961
			c4.165-0.521,12.494-1.301,12.755-2.342"/>
		<path fill="none" stroke="#BE1E2D" stroke-width="2" stroke-miterlimit="10" d="M120.057,126.387
			c0.52,2.863,10.846,6.507,15.01,0.954"/>
		<path fill="none" stroke="#BE1E2D" stroke-width="2" stroke-miterlimit="10" d="M173.936,95.412
			c-1.041,19.261-6.003,35.979-22.385,47.893c-17.18,12.494-28.111,17.7-53.1-7.808c-17.275-17.636-17.179-35.4-17.179-38.523"/>
		<path fill="none" stroke="#BE1E2D" stroke-width="2" stroke-miterlimit="10" d="M131.621,30.729
			c3.644,7.289,5.873,13.666,7.436,22.516c1.562,8.85,13.535,7.806,22.905,10.929c9.371,3.124,9.892,5.73,9.892,5.73"/>
		<path fill="none" stroke="#BE1E2D" stroke-width="2" stroke-miterlimit="10" d="M133.121,26.729c-2.603,0-7.314,3.444-12,17.5
			c-4.685,14.055-4.503,12.209-8.668,15.333c-4.6,3.45-17.125,3.053-27.536,12.423"/>
		<path fill="none" stroke="#BE1E2D" stroke-width="2" stroke-miterlimit="10" d="M172.895,108.427
			c6.247,2.603,17.699-3.645,15.097-17.7c-2.604-14.056-6.247-10.411-8.33-3.123"/>
		<path fill="none" stroke="#BE1E2D" stroke-width="2" stroke-miterlimit="10" d="M82.313,110.509
			c-4.685,2.603-9.892,0-13.535-10.412C65.134,89.686,69.819,80.836,74.504,85c4.687,4.165,2.604,3.645,2.604,3.645"/>
		<path fill="none" stroke="#BE1E2D" stroke-width="2" stroke-miterlimit="10" d="M184.348,80.836
			c-0.521-26.55-6.768-54.661-24.468-65.593c-19.412-11.99-27.07-7.809-29.152-6.247c-2.083,1.562-10.933-6.248-24.988,1.562
			c-14.056,7.809-30.714,32.797-32.275,52.058s-1.562,21.344-1.562,21.344"/>
		<path fill="none" stroke="#BE1E2D" stroke-width="2" stroke-miterlimit="10" d="M183.826,106.344
			c0,33.838-2.643,41.742-4.205,45.385c-1.562,3.645-33,2.5-33,2.5"/>
		<path fill="none" stroke="#BE1E2D" stroke-width="2" stroke-miterlimit="10" d="M71.902,106.344
			c-2.083,21.865-3.344,37.097-1.781,44.385c1.562,7.288,37.5,3,37.5,3"/>
		<path fill="none" stroke="#BE1E2D" stroke-width="2" stroke-miterlimit="10" d="M148.427,144.867
			c-2.603,7.809-2.055,18.969,0.027,24.696"/>
		<path fill="none" stroke="#BE1E2D" stroke-width="2" stroke-miterlimit="10" d="M104.871,141.979
			c3.644,5.727,3.812,20.752,2.25,24.917"/>
		<path fill="none" stroke="#BE1E2D" stroke-width="2" stroke-miterlimit="10" d="M103.137,185.271
			c10.932,2.603,48.964,4.644,49.484-0.042"/>
		<path fill="none" stroke="#BE1E2D" stroke-width="2" stroke-miterlimit="10" d="M146.621,159.479
			c18.5,6.5,32.521,13.298,45.535,20.066c5.406,2.811,4.685-1.562,10.411,1.562c5.727,3.123,12.367,8.392,15.618,23.426
			c4.164,19.262,12.936,81.697,12.936,81.697"/>
		<path fill="none" stroke="#BE1E2D" stroke-width="2" stroke-miterlimit="10" d="M108.371,158.979
			c-13.25,3-40.053,11.519-43.25,13.917c-2.083,1.562-8.837-1.16-14.043,0.922c-5.205,2.083-31.291,46.411-27.957,110.411"/>
		<path fill="none" stroke="#BE1E2D" stroke-width="2" stroke-miterlimit="10" d="M58.454,234.229c-1.562,9.37,0,51.334,0,51.334"/>
		<path fill="none" stroke="#BE1E2D" stroke-width="2" stroke-miterlimit="10" d="M201.525,251.906"/>
		<path fill="none" stroke="#BE1E2D" stroke-width="2" stroke-miterlimit="10" d="M195.121,228.896c-0.667,21.333,4,56.667,4,56.667
			"/>
		<path fill="none" stroke="#BE1E2D" stroke-width="2" stroke-miterlimit="10" d="M142.551,65.913
			c8.474,0.104,14.802,2.965,18.374,6.334"/>
		<path fill="none" stroke="#BE1E2D" stroke-width="2" stroke-miterlimit="10" d="M113.48,67.157
			c-9.566-0.801-15.03,1.518-16.884,3.345"/>
		<path fill="none" stroke="#BE1E2D" stroke-width="2" stroke-miterlimit="10" d="M167.168,67.301
			c1.041,5.206,3.644,23.426,10.412,16.138"/>
		<path fill="none" stroke="#BE1E2D" stroke-width="2" stroke-miterlimit="10" d="M90.122,70.424
			c-1.042,4.165-3.124,26.55-11.453,14.056"/>
		<path fill="none" stroke="#BE1E2D" stroke-width="2" stroke-miterlimit="10" d="M196.454,190.229c0.667,7.333-2,16-2,16"/>
		<path fill="none" stroke="#BE1E2D" stroke-width="2" stroke-miterlimit="10" d="M57.121,186.229
			c0.666,7.333-0.666,14.667,2,18.667"/>
		<path fill="none" stroke="#BE1E2D" stroke-width="2" stroke-miterlimit="10" d="M147.871,164.729c11.5,20.75,6.25,81.5,0.25,102
			s-6.5,23-6.5,23"/>
		<path fill="none" stroke="#BE1E2D" stroke-width="2" stroke-miterlimit="10" d="M107.121,165.229c-4.5,16-10,47.5-3,88.5
			s6,34.5,6,34.5"/>
		<path fill="none" stroke="#BE1E2D" stroke-width="2" stroke-miterlimit="10" d="M157.871,163.479c10,12.5,12.25,35.75,12.75,50.25
			s-9.5,22-9.5,22s2,7.5,2,13.5s-7,39-7,39"/>
		<path fill="none" stroke="#BE1E2D" stroke-width="2" stroke-miterlimit="10" d="M100.121,161.229c-6,12-19.5,54-13,66.5
			c3.327,6.398,6,6.5,6,6.5s-6.5-1-2,20.5s8,33,8,33"/>
	</g>
</g>
</svg>
