<?xml version="1.0" encoding="utf-8"?>
<!-- Generator: Adobe Illustrator 18.0.0, SVG Export Plug-In . SVG Version: 6.00 Build 0)  -->
<!DOCTYPE svg PUBLIC "-//W3C//DTD SVG 1.1//EN" "http://www.w3.org/Graphics/SVG/1.1/DTD/svg11.dtd">
<svg version="1.1" id="Layer_1" xmlns="http://www.w3.org/2000/svg" xmlns:xlink="http://www.w3.org/1999/xlink" x="0px" y="0px"
	 viewBox="284 189 778 204" enable-background="new 284 189 778 204" xml:space="preserve">
<polygon fill="#231F20" points="910,374.9 882.6,201.6 855.9,205.9 855.9,203 824.5,203 824.5,378.4 855.9,378.4 855.9,233.1 
	879,379.8 "/>
<path fill="#231F20" d="M319.1,253.2v19.7h0.5c8.5-15,21.9-22.6,40.3-22.6c8.2,0,15,1.1,20.4,3.4c5.4,2.2,9.8,5.4,13.2,9.4
	c3.4,4,5.7,8.8,7.1,14.3c1.4,5.5,2,11.6,2,18.4v81.6h-20.4v-84c0-7.7-2.2-13.8-6.7-18.2c-4.5-4.5-10.6-6.7-18.5-6.7
	c-6.2,0-11.6,1-16.2,2.9c-4.6,1.9-8.4,4.6-11.4,8.2c-3,3.5-5.3,7.6-6.8,12.4c-1.5,4.7-2.3,9.9-2.3,15.5v70.1h-20.4V253.2H319.1z"/>
<path fill="#231F20" d="M430.4,289.8c2.6-7.9,6.4-14.8,11.5-20.6c5.1-5.8,11.4-10.4,19-13.8c7.5-3.4,16.2-5,25.9-5
	c9.9,0,18.6,1.7,26,5c7.4,3.4,13.7,8,18.8,13.8c5.1,5.8,9,12.7,11.5,20.6c2.6,7.9,3.8,16.4,3.8,25.6s-1.3,17.6-3.8,25.4
	c-2.6,7.8-6.4,14.7-11.5,20.5c-5.1,5.8-11.4,10.4-18.8,13.7s-16.1,4.9-26,4.9c-9.8,0-18.4-1.6-25.9-4.9c-7.5-3.3-13.8-7.8-19-13.7
	c-5.1-5.8-9-12.7-11.5-20.5c-2.6-7.8-3.8-16.3-3.8-25.4S427.9,297.7,430.4,289.8z M451.2,335.4c2,5.8,4.8,10.7,8.3,14.6
	c3.5,3.9,7.6,6.9,12.4,9c4.7,2.1,9.7,3.1,15,3.1c5.3,0,10.3-1,15-3.1c4.7-2.1,8.8-5.1,12.4-9c3.5-3.9,6.3-8.8,8.3-14.6
	c2-5.8,3-12.5,3-20s-1-14.2-3-20c-2-5.8-4.8-10.8-8.3-14.8c-3.5-4-7.6-7-12.4-9.1c-4.7-2.1-9.7-3.1-15-3.1c-5.3,0-10.3,1-15,3.1
	c-4.7,2.1-8.8,5.1-12.4,9.1c-3.5,4-6.3,8.9-8.3,14.8c-2,5.8-3,12.5-3,20S449.2,329.6,451.2,335.4z"/>
<path fill="#231F20" d="M605.2,377.3l-46.1-124.1h22.8l34.8,103.4h0.5L651,253.2h21.4L627,377.3H605.2z"/>
<path fill="#231F20" d="M778.9,369.4c-9.3,7-21,10.6-35,10.6c-9.9,0-18.5-1.6-25.8-4.8c-7.3-3.2-13.4-7.7-18.4-13.4
	c-5-5.8-8.7-12.6-11.2-20.6c-2.5-8-3.9-16.7-4.2-26.2c0-9.4,1.4-18.1,4.3-25.9c2.9-7.8,6.9-14.6,12.1-20.4
	c5.2-5.8,11.4-10.2,18.5-13.4c7.1-3.2,14.9-4.8,23.4-4.8c11,0,20.2,2.3,27.5,6.8c7.3,4.6,13.1,10.4,17.5,17.4c4.4,7,7.4,14.7,9.1,23
	c1.7,8.3,2.4,16.2,2,23.8H706c-0.2,5.4,0.5,10.6,1.9,15.5c1.4,4.9,3.8,9.2,7,13c3.2,3.8,7.3,6.8,12.2,9c5,2.2,10.8,3.4,17.5,3.4
	c8.6,0,15.7-2,21.2-6c5.5-4,9.2-10.1,10.9-18.2h20.2C794.2,351.9,788.2,362.3,778.9,369.4z M774,289.7c-1.8-4.3-4.3-8-7.4-11.2
	c-3.1-3.1-6.8-5.6-11-7.4c-4.2-1.8-8.9-2.8-14-2.8c-5.3,0-10,0.9-14.3,2.8c-4.2,1.8-7.9,4.4-10.9,7.6c-3,3.2-5.4,6.9-7.2,11.2
	c-1.8,4.2-2.8,8.8-3.1,13.6h71.3C776.9,298.6,775.8,294,774,289.7z"/>
<path fill="#231F20" d="M1051.3,376.8c-3.5,2.1-8.4,3.1-14.6,3.1c-5.3,0-9.5-1.5-12.6-4.4c-3.1-3-4.7-7.8-4.7-14.5
	c-5.6,6.7-12.1,11.6-19.6,14.5c-7.4,3-15.5,4.4-24.1,4.4c-5.6,0-10.9-0.6-16-1.9c-5-1.3-9.4-3.3-13.1-6c-3.7-2.7-6.6-6.3-8.8-10.7
	c-2.2-4.4-3.2-9.7-3.2-16c0-7,1.2-12.8,3.6-17.3c2.4-4.5,5.6-8.1,9.5-10.9c3.9-2.8,8.4-4.9,13.4-6.4c5-1.4,10.2-2.6,15.5-3.6
	c5.6-1.1,10.9-2,16-2.5c5-0.6,9.5-1.4,13.3-2.4c3.8-1,6.9-2.6,9.1-4.6c2.2-2,3.4-4.9,3.4-8.8c0-4.5-0.8-8.1-2.5-10.8
	c-1.7-2.7-3.8-4.8-6.5-6.2c-2.6-1.4-5.6-2.4-8.9-2.9c-3.3-0.5-6.5-0.7-9.7-0.7c-8.6,0-15.8,1.6-21.6,4.9c-5.8,3.3-8.9,9.5-9.4,18.6
	h-20.4c0.3-7.7,1.9-14.2,4.8-19.4c2.9-5.3,6.7-9.6,11.5-12.8c4.8-3.3,10.3-5.6,16.4-7.1c6.2-1.4,12.8-2.2,19.8-2.2
	c5.6,0,11.2,0.4,16.7,1.2s10.5,2.4,15,4.9c4.5,2.5,8.1,5.9,10.8,10.4c2.7,4.5,4.1,10.3,4.1,17.5V348c0,4.8,0.3,8.3,0.8,10.5
	c0.6,2.2,2.4,3.4,5.6,3.4c1.8,0,3.8-0.3,6.2-1L1051.3,376.8L1051.3,376.8z M1018.2,313.2c-2.6,1.9-5.9,3.3-10.1,4.2
	c-4.2,0.9-8.5,1.6-13.1,2.1c-4.6,0.6-9.2,1.2-13.8,1.9c-4.6,0.7-8.8,1.9-12.5,3.5c-3.7,1.6-6.7,3.9-9,6.8c-2.3,2.9-3.5,7-3.5,12.1
	c0,3.3,0.7,6.2,2,8.5c1.4,2.3,3.1,4.2,5.3,5.6c2.2,1.4,4.7,2.5,7.6,3.1c2.9,0.6,5.9,1,9.1,1c6.7,0,12.5-0.9,17.3-2.7
	c4.8-1.8,8.7-4.1,11.8-6.9c3-2.8,5.3-5.8,6.7-9.1c1.4-3.3,2.2-6.3,2.2-9.2L1018.2,313.2L1018.2,313.2z"/>
</svg>
